<svg width="100" height="100" viewBox="0 0 100 100" xmlns="http://www.w3.org/2000/svg">
  <defs>
    <radialGradient id="chompGrad" cx="30%" cy="30%" r="70%">
      <stop offset="0%" style="stop-color:#BA68C8;stop-opacity:1" />
      <stop offset="100%" style="stop-color:#7B1FA2;stop-opacity:1" />
    </radialGradient>
  </defs>
  <!-- Stem -->
  <path d="M50 90 Q50 70 50 60" fill="none" stroke="#388E3C" stroke-width="6"/>
  <!-- Leaves -->
  <path d="M50 90 Q30 90 20 80 Q30 100 50 100 T80 80 Q70 90 50 90" fill="#4CAF50"/>
  <!-- Head -->
  <path d="M20 20 Q50 0 80 20 L80 60 Q50 80 20 60 Z" fill="url(#chompGrad)" stroke="#4A148C" stroke-width="2"/>
  <!-- Lips -->
  <path d="M20 40 Q50 40 80 40" stroke="#F06292" stroke-width="4"/>
  <!-- Teeth -->
  <path d="M25 25 L30 35 L35 25 M45 25 L50 35 L55 25 M65 25 L70 35 L75 25" fill="white" stroke="black" stroke-width="1"/>
  <path d="M25 55 L30 45 L35 55 M45 55 L50 45 L55 55 M65 55 L70 45 L75 55" fill="white" stroke="black" stroke-width="1"/>
</svg>
