<svg width="100" height="100" viewBox="0 0 100 100" xmlns="http://www.w3.org/2000/svg">
  <defs>
    <radialGradient id="repHeadGrad" cx="30%" cy="30%" r="70%">
      <stop offset="0%" style="stop-color:#81C784;stop-opacity:1" />
      <stop offset="100%" style="stop-color:#2E7D32;stop-opacity:1" />
    </radialGradient>
  </defs>
  <!-- Leaves -->
  <path d="M50 80 Q20 80 10 60 Q20 90 50 90 T90 60 Q80 80 50 80" fill="#388E3C" stroke="#1B5E20" stroke-width="2"/>
  <!-- Stem -->
  <path d="M50 80 Q50 60 40 50" fill="none" stroke="#4CAF50" stroke-width="8" stroke-linecap="round"/>
  <!-- Head -->
  <circle cx="35" cy="40" r="25" fill="url(#repHeadGrad)" stroke="#1B5E20" stroke-width="2"/>
  <!-- Snout 1 -->
  <path d="M55 20 Q70 20 75 30 Q70 40 55 40 Z" fill="#66BB6A" stroke="#1B5E20" stroke-width="2"/>
  <ellipse cx="75" cy="30" rx="4" ry="6" fill="#1B5E20"/>
  <!-- Snout 2 (Back) -->
  <path d="M50 45 Q65 45 70 55 Q65 65 50 65 Z" fill="#66BB6A" stroke="#1B5E20" stroke-width="2"/>
  <ellipse cx="70" cy="55" rx="4" ry="6" fill="#1B5E20"/>
  <!-- Eye -->
  <circle cx="40" cy="35" r="5" fill="black"/>
  <circle cx="42" cy="33" r="2" fill="white"/>
  <!-- Eyebrow (Angry) -->
  <path d="M35 28 L45 30" stroke="black" stroke-width="2"/>
</svg>
