<svg width="100" height="100" viewBox="0 0 100 100" xmlns="http://www.w3.org/2000/svg">
  <defs>
    <radialGradient id="snowHeadGrad" cx="30%" cy="30%" r="70%">
      <stop offset="0%" style="stop-color:#81D4FA;stop-opacity:1" />
      <stop offset="100%" style="stop-color:#0277BD;stop-opacity:1" />
    </radialGradient>
  </defs>
  <!-- Leaves -->
  <path d="M50 80 Q20 80 10 60 Q20 90 50 90 T90 60 Q80 80 50 80" fill="#0288D1" stroke="#01579B" stroke-width="2"/>
  <!-- Stem -->
  <path d="M50 80 Q50 60 40 50" fill="none" stroke="#0277BD" stroke-width="8" stroke-linecap="round"/>
  <!-- Head -->
  <circle cx="40" cy="40" r="25" fill="url(#snowHeadGrad)" stroke="#01579B" stroke-width="2"/>
  <!-- Snout -->
  <path d="M60 25 Q75 25 80 40 Q75 55 60 55 Z" fill="#4FC3F7" stroke="#01579B" stroke-width="2"/>
  <ellipse cx="80" cy="40" rx="5" ry="8" fill="#01579B"/>
  <!-- Ice Crystals -->
  <path d="M30 20 L35 30 M30 30 L35 20 M25 25 L40 25" stroke="white" stroke-width="2"/>
  <!-- Eye -->
  <circle cx="45" cy="35" r="5" fill="black"/>
  <circle cx="47" cy="33" r="2" fill="white"/>
</svg>
