<svg xmlns="http://www.w3.org/2000/svg" viewBox="0 0 100 100">
        <defs>
            <radialGradient id="snowHead" cx="50%" cy="50%" r="50%" fx="30%" fy="30%">
                <stop offset="0%" style="stop-color:#4FC3F7;stop-opacity:1" />
                <stop offset="100%" style="stop-color:#0288D1;stop-opacity:1" />
            </radialGradient>
        </defs>
        <path d="M45,60 Q40,90 50,100 Q60,90 55,60" fill="#0277BD" />
        <circle cx="50" cy="40" r="30" fill="url(#snowHead)" stroke="#01579B" stroke-width="2"/>
        <ellipse cx="35" cy="35" rx="5" ry="8" fill="black" />
        <ellipse cx="65" cy="35" rx="5" ry="8" fill="black" />
        <path d="M75,40 Q95,40 95,50 Q95,60 75,60" fill="#81D4FA" stroke="#0277BD" stroke-width="2"/>
        <circle cx="85" cy="50" r="8" fill="black" opacity="0.3"/>
        <path d="M20,40 Q5,30 15,10 Q25,20 25,35" fill="#81D4FA" stroke="#0277BD" stroke-width="1"/>
        <path d="M40,10 L45,20 L55,15 L50,25 L65,30 L55,35 L65,45 L55,50 L60,60 L50,55 L40,65 L30,55 L20,60 L25,50 L15,45 L25,35 L15,30 L30,25 L25,15 L35,20 Z" fill="white" opacity="0.5" transform="scale(0.3) translate(120, 50)"/>
    </svg>
