<svg xmlns="http://www.w3.org/2000/svg" viewBox="0 0 100 100">
        <path d="M48,60 Q45,90 50,100 Q55,90 52,60" fill="#33691E" />
        <path d="M20,60 Q10,50 20,40 Q30,50 40,50" fill="#8BC34A" />
        <path d="M80,60 Q90,50 80,40 Q70,50 60,50" fill="#8BC34A" />
        <circle cx="50" cy="35" r="20" fill="#5D4037" stroke="#3E2723" stroke-width="2"/>
        <path d="M50,10 L55,20 L65,15 L60,25 L75,30 L65,35 L75,45 L65,50 L70,60 L60,55 L50,65 L40,55 L30,60 L35,50 L25,45 L35,35 L25,30 L40,25 L35,15 L45,20 Z" fill="#FFEB3B" stroke="#FBC02D" stroke-width="1" style="transform-origin: 50px 35px; animation: spin 5s linear infinite;"/>
        <circle cx="42" cy="30" r="3" fill="black" />
        <circle cx="58" cy="30" r="3" fill="black" />
        <path d="M40,40 Q50,45 60,40" fill="none" stroke="black" stroke-width="2" stroke-linecap="round"/>
    </svg>
